<svg xmlns="http://www.w3.org/2000/svg" width="512" height="512" viewBox="0 0 512 512" version="1.1">
	<path d="M 241.415 1.421 C 233.684 4.787, 231.454 14.119, 236.918 20.234 C 239.550 23.180, 240.380 23.500, 245.395 23.500 C 252.559 23.500, 255.959 20.543, 256.737 13.637 C 257.343 8.264, 255.640 4.970, 250.696 1.956 C 246.964 -0.320, 245.595 -0.398, 241.415 1.421 M 335.881 77.503 C 333.243 78.937, 330 84.412, 330 87.433 C 330 90.883, 332.963 95.930, 335.872 97.434 C 345.894 102.616, 356.242 94.426, 353.065 83.824 C 351.045 77.081, 342.466 73.925, 335.881 77.503 M 142.270 85.471 C 138.417 87.160, 135.007 92.338, 135.007 96.500 C 135.007 106.247, 148.254 111.681, 154.864 104.645 C 163.718 95.220, 153.950 80.349, 142.270 85.471 M 196.516 109.250 C 196.284 109.938, 192.664 120.175, 188.472 132 L 180.849 153.500 171.674 153.553 C 130.116 153.795, 107.691 194.304, 133.714 222.125 C 136.214 224.798, 140.557 228.311, 143.366 229.933 C 148.752 233.042, 148.624 233.353, 141.500 234.473 C 131.102 236.106, 114.554 242.800, 105.410 249.071 C 101.384 251.832, 101.251 251.852, 96.910 250.338 C 91.202 248.348, 82.567 249.075, 76.264 252.077 C 73.644 253.325, 68.350 257.531, 64.500 261.423 C 53.232 272.815, 47.916 285.821, 47.916 302 C 47.916 318.764, 53.260 331.256, 63.126 337.554 C 65.865 339.302, 66.925 340.789, 67.458 343.628 C 68.685 350.166, 73.046 359.763, 78.483 367.886 L 83.743 375.744 77.621 377.433 C 52.636 384.326, 30.279 406.643, 23.456 431.500 C 20.670 441.652, 20.405 456.211, 22.833 465.812 C 27.753 485.267, 38.224 499.535, 55.118 509.801 L 58.736 512 252.888 512 L 447.040 512 451.270 509.341 C 459.104 504.415, 469.059 495.568, 474.710 488.511 C 480.891 480.790, 488.062 466.547, 490.070 458 C 491.750 450.854, 491.774 434.003, 490.116 427 C 484.483 403.213, 469.833 382.666, 448.286 368.329 C 440.627 363.233, 424.049 355.051, 421.309 355.015 C 419.105 354.987, 418.965 353.174, 420.909 349.827 C 427.150 339.080, 429.239 319.764, 425.487 307.500 C 424.073 302.877, 423.699 298.746, 423.856 289.500 C 424.185 270.207, 420.394 260.450, 407.500 247.408 C 391.061 230.778, 372.931 227.537, 361.020 239.097 C 356.806 243.186, 351 254.106, 351 257.943 C 351 260.099, 348.280 262, 345.196 262 C 343.458 262, 343.657 261.244, 347.153 254.572 C 351.553 246.175, 355 234.014, 355 226.889 C 355 219.374, 353.145 212.182, 348.930 203.350 C 339.611 183.826, 317.944 171.048, 294.088 171.008 C 289.845 171, 289.268 170.604, 279.088 160.695 C 257.277 139.465, 235.560 124.697, 208.673 112.812 C 202.686 110.165, 197.597 108, 197.363 108 C 197.129 108, 196.748 108.563, 196.516 109.250 M 72.763 153.565 C 69.308 155.440, 67 159.840, 67 164.550 C 67 169.966, 72.275 175, 77.950 175 C 85.975 175, 90 170.943, 90 162.853 C 90 157.145, 84.915 151.982, 79.350 152.040 C 77.233 152.062, 74.268 152.748, 72.763 153.565 M 361.406 169.903 C 356.167 172.282, 353.299 178.347, 354.990 183.470 C 358.371 193.715, 372.647 194.875, 376.677 185.231 C 379.485 178.511, 376.932 172.177, 370.282 169.362 C 366.267 167.663, 366.351 167.658, 361.406 169.903 M 277 364.576 C 231.625 365.844, 181.150 367.246, 164.833 367.691 C 148.516 368.136, 134.891 368.775, 134.555 369.111 C 133.470 370.198, 139.107 386.236, 144.013 396.020 C 168.246 444.342, 222.711 471.117, 274.922 460.375 C 311.063 452.939, 342.873 428.039, 359.027 394.538 C 363.837 384.561, 369 368.954, 369 364.388 C 369 362.187, 368.628 362.011, 364.250 362.135 C 361.637 362.209, 322.375 363.307, 277 364.576" stroke="none" fill="black" fill-rule="evenodd"/>
</svg>